<svg xmlns="http://www.w3.org/2000/svg" viewBox="0 0 109.6 32" fill="none">
  <path d="M73.4 25.2c-1.7 0-3.3-.5-4.5-1.5-1.2-1-2-2.4-2.3-4h-.1c-.3 1.6-1.1 3-2.3 4-1.2 1-2.8 1.5-4.5 1.5-2.1 0-3.8-.7-5-2.1-1.2-1.4-1.8-3.2-1.8-5.5V6.8h3.4v10.5c0 1.5.4 2.7 1.1 3.5.7.8 1.7 1.2 3 1.2 1.5 0 2.7-.5 3.5-1.5.8-1 1.3-2.3 1.3-3.9V6.8h3.4v10.5c0 1.5.4 2.7 1.1 3.5.7.8 1.7 1.2 3 1.2 1.5 0 2.7-.5 3.5-1.5.8-1 1.3-2.3 1.3-3.9V6.8h3.4v10.8c0 2.3-.6 4.1-1.8 5.5-1.2 1.4-2.9 2.1-5 2.1z" fill="currentColor"/>
  <path d="M89.7 25.2c-1.6 0-2.9-.3-3.9-.8-1-.5-1.8-1.2-2.3-2-.5-.8-.8-1.7-.8-2.6 0-1.7.7-3 2-4 1.3-1 3.2-1.5 5.5-1.5h4.1v-.5c0-1.3-.4-2.3-1.1-3-.7-.7-1.8-1.1-3.2-1.1-1.1 0-2 .3-2.8.8-.8.5-1.2 1.2-1.4 2.1h-3.5c.2-1.7.9-3 2.2-4 1.3-1 2.9-1.5 4.9-1.5-4.7 0-3.6.7-4.7 2s-1.6 3-1.6 5.1v6c0 .5 0 1-.1 1.4h3.3c.1-.4.1-.9.1-1.5h.1c.4.6 1 1.1 1.8 1.5.8.4 1.8.6 3 .6h-.5zm4.6-8.1h-3.8c-1.5 0-2.6.3-3.4.8-.8.5-1.1 1.2-1.1 2.2 0 .8.3 1.5 1 2 .7.5 1.6.8 2.8.8 1.5 0 2.7-.4 3.6-1.3.9-.9 1.3-2 1.3-3.4v-1.1h-.4z" fill="currentColor"/>
  <path d="M16 0L3.2 9.3l4.9 15.1H0L4.9 9.3 16 0z" fill="currentColor"/>
  <path d="M16 0l12.8 9.3-4.9 15.1H32l-4.9-15.1L16 0z" fill="currentColor"/>
  <path d="M8.1 24.4h15.8L16 32l-7.9-7.6z" fill="currentColor"/>
  <path d="M41.5 25V6.8h3.4v3h.1c.3-1.1.9-1.9 1.7-2.5.8-.6 1.8-.9 3-.9.4 0 .7 0 1 .1v3.3c-.4-.1-.9-.1-1.4-.1-1.3 0-2.4.4-3.2 1.3-.8.9-1.2 2-1.2 3.4V25h-3.4z" fill="currentColor"/>
  <path d="M99.6 25.2c-1.4 0-2.5-.4-3.3-1.3-.8-.9-1.2-2.1-1.2-3.6V9.8h-2.5V6.8h2.5V1.9h3.4v4.9h3.5v3h-3.5v10c0 1 .2 1.7.6 2.1.4.4 1 .6 1.8.6.4 0 .8 0 1.2-.1V25c-.5.1-1.1.2-1.8.2h-.7z" fill="currentColor"/>
  <path d="M106.3 25V0h3.3v10.3h.1c.3-.7.7-1.4 1.3-2 .6-.6 1.5-.9 2.6-.9s2 .3 2.7.8c.7.5 1.1 1.3 1.1 2.3V25h-3.3V11.5c0-.6-.2-1.1-.6-1.4-.4-.3-.9-.5-1.5-.5-.9 0-1.6.3-2.1.9-.5.6-.8 1.3-.8 2.2V25h-2.8z" fill="currentColor"/>
</svg>